<?xml version="1.0" encoding="UTF-8"?>
<!DOCTYPE svg PUBLIC "-//W3C//DTD SVG 1.1//EN" "http://www.w3.org/Graphics/SVG/1.1/DTD/svg11.dtd">
<!-- Creator: CorelDRAW -->
<svg xmlns="http://www.w3.org/2000/svg" xml:space="preserve" width="5.51311in" height="1.00633in" version="1.1" style="shape-rendering:geometricPrecision; text-rendering:geometricPrecision; image-rendering:optimizeQuality; fill-rule:evenodd; clip-rule:evenodd"
viewBox="0 0 5513.11 1006.33"
 xmlns:xlink="http://www.w3.org/1999/xlink">
 <defs>
  <style type="text/css">
   <![CDATA[
    .fil0 {fill:black}
   ]]>
  </style>
 </defs>
 <g id="Layer_x0020_1">
  <metadata id="CorelCorpID_0Corel-Layer"/>
  <g id="_2839519050448">
   <path class="fil0" d="M1410.84 774.08l0 -272.2c0,-36.56 -6.58,-72.12 -21.1,-105.72 -13.94,-32.28 -33.25,-61.13 -58.11,-85.98 -24.86,-24.86 -53.7,-44.17 -85.98,-58.11 -33.61,-14.52 -69.16,-21.1 -105.73,-21.1 -36.43,0 -71.65,6.83 -105.15,21.13 -32.67,13.94 -61.97,33.27 -87.29,58.17 -25.14,24.74 -44.67,53.52 -58.65,85.89 -14.52,33.61 -21.11,69.16 -21.11,105.72 0,36.43 6.83,71.65 21.13,105.15 13.99,32.79 33.51,62 58.72,87.2 25.2,25.2 54.41,44.72 87.19,58.72 33.5,14.3 68.72,21.13 105.15,21.13l270.92 0zm-461.93 -272.2c0,-25.54 4.73,-50.37 14.8,-73.87 9.71,-22.66 23.29,-42.92 40.71,-60.34 17.59,-17.59 38.17,-31.14 61.1,-40.76 23.72,-9.96 48.7,-14.76 74.4,-14.76 25.54,0 50.37,4.73 73.87,14.8 22.66,9.71 42.92,23.29 60.35,40.72 17.43,17.42 31.01,37.68 40.72,60.34 10.07,23.5 14.8,48.33 14.8,73.87l0 191 -189.73 0c-25.7,0 -50.68,-4.8 -74.4,-14.76 -22.92,-9.63 -43.51,-23.17 -61.1,-40.75 -17.57,-17.58 -31.12,-38.18 -40.75,-61.1 -9.96,-23.72 -14.76,-48.69 -14.76,-74.4zm527.02 272.2l81.19 0 0 -272.2c0,-25.54 4.74,-50.37 14.8,-73.87 9.71,-22.66 23.28,-42.92 40.71,-60.34 17.43,-17.43 37.69,-31.01 60.35,-40.72 23.5,-10.07 48.32,-14.8 73.86,-14.8 25.71,0 50.7,4.8 74.41,14.76 22.93,9.63 43.5,23.17 61.09,40.76 17.42,17.42 31,37.68 40.72,60.34 10.07,23.5 14.8,48.33 14.8,73.87l0 272.2 81.19 0 0 -272.2c0,-25.54 4.73,-50.37 14.8,-73.87 9.71,-22.66 23.29,-42.92 40.71,-60.34 17.43,-17.43 37.7,-31.01 60.35,-40.72 23.5,-10.07 48.32,-14.8 73.86,-14.8 25.72,0 50.69,4.8 74.41,14.76 22.93,9.63 43.52,23.17 61.1,40.76 17.43,17.42 31,37.68 40.71,60.34 10.07,23.5 14.8,48.33 14.8,73.87l0 272.2 81.19 0 0 -272.2c0,-36.56 -6.58,-72.12 -21.1,-105.72 -13.98,-32.37 -33.52,-61.15 -58.66,-85.89 -25.2,-24.8 -54.24,-44.17 -86.71,-58.2 -33.6,-14.52 -69.17,-21.1 -105.73,-21.1 -43.46,0 -84.71,9.49 -123.24,29.57 -37.63,19.62 -69.24,46.37 -94.44,80.5l-13.28 17.99 -13.28 -17.99c-25.1,-34.02 -56.45,-60.83 -93.86,-80.53 -38.6,-20.34 -80.24,-29.54 -123.83,-29.54 -36.43,0 -71.65,6.83 -105.15,21.13 -32.48,13.86 -61.59,33.11 -86.55,58.08 -24.86,24.85 -44.17,53.7 -58.11,85.98 -14.52,33.61 -21.1,69.16 -21.1,105.72l0 272.2zm1514.27 -162.89l-28.1 28.11c-29.13,29.13 -64.01,47.81 -104.77,54.04 -39.32,6.02 -77.58,0.2 -113.17,-17.6l-20.48 -10.24 324.02 -324.02 -28.11 -28.1c-25.95,-25.96 -55.9,-46.29 -90.02,-59.85 -32.8,-13.04 -67.02,-20 -102.33,-20 -35.3,0 -69.52,6.97 -102.32,20 -34.11,13.57 -64.07,33.91 -90.03,59.85 -25.7,25.7 -45.93,55.38 -59.16,89.28 -12.76,32.69 -19.4,66.7 -19.4,101.78 0,35.28 6.73,69.57 19.42,102.48 13.16,34.13 33.29,64.01 59.15,89.86 25.54,25.54 54.97,45.47 88.32,59.3 33.25,13.79 68.02,20.55 104.02,20.55 36,0 70.78,-6.76 104.03,-20.55 33.35,-13.83 62.79,-33.76 88.32,-59.3l28.11 -28.11 -57.49 -57.5zm-334.26 -23.65c-13.06,-26.11 -19.71,-53.91 -19.71,-83.09 0,-52.54 19.03,-97.72 56.15,-134.86 29.15,-29.15 64.09,-47.66 104.96,-53.43 39.36,-5.56 77.42,0.48 112.98,18.26l20.48 10.24 -16.19 16.2c-16.83,16.82 -33.82,33.49 -50.81,50.15 -22.74,22.3 -45.36,44.72 -67.89,67.25 -22.24,22.24 -44.48,44.47 -66.72,66.72 -15.61,15.61 -31.22,31.22 -46.83,46.84l-16.2 16.19 -10.24 -20.48zm782.25 105.35l-39.96 0c-25.7,0 -50.68,-4.8 -74.4,-14.76 -22.92,-9.63 -43.51,-23.17 -61.1,-40.75 -17.57,-17.58 -31.12,-38.18 -40.75,-61.1 -9.96,-23.72 -14.76,-48.69 -14.76,-74.4l0 -74.25 230.96 0 0 -81.19 -230.96 0 0 -346.45 -81.19 0 0 501.89c0,36.43 6.84,71.65 21.13,105.15 14,32.79 33.52,62 58.72,87.2 25.2,25.2 54.41,44.72 87.19,58.72 33.5,14.3 68.72,21.13 105.15,21.13l39.96 0 0 -81.19z"/>
   <path class="fil0" d="M4518.68 232.25l-81.19 0 0 270.92c0,25.7 -4.8,50.68 -14.76,74.4 -9.63,22.93 -23.18,43.51 -40.76,61.1 -17.43,17.43 -37.69,31 -60.35,40.71 -23.5,10.07 -48.33,14.8 -73.87,14.8 -25.7,0 -50.68,-4.8 -74.4,-14.76 -22.92,-9.63 -43.51,-23.17 -61.1,-40.75 -17.57,-17.59 -31.12,-38.18 -40.75,-61.1 -9.96,-23.72 -14.76,-48.69 -14.76,-74.4 0,-38.7 -4.85,-69.17 -21.19,-107.01 -13.98,-32.37 -33.52,-61.15 -58.66,-85.89 -25.2,-24.8 -54.25,-44.17 -86.72,-58.2 -33.61,-14.52 -69.16,-21.1 -105.72,-21.1 -29.93,0 -59.33,4.65 -87.61,14.48 -27.34,9.51 -52.65,23.14 -75.41,41.02l-26.7 20.98 0 -307.45 -81.19 0 0 774.08 81.19 0 0 -272.2c0,-25.54 4.73,-50.37 14.8,-73.87 9.71,-22.66 23.28,-42.92 40.7,-60.34 17.43,-17.43 37.7,-31.01 60.35,-40.72 23.5,-10.07 48.32,-14.8 73.86,-14.8 25.71,0 50.7,4.8 74.4,14.76 22.93,9.63 43.5,23.17 61.09,40.76 17.43,17.43 31,37.69 40.72,60.35 24.89,58.07 7.12,112.57 36.02,180.3 13.99,32.79 33.51,62 58.72,87.2 25.2,25.2 54.41,44.72 87.19,58.72 33.5,14.3 68.72,21.13 105.15,21.13 29.93,0 59.33,-4.65 87.61,-14.48 27.33,-9.52 52.66,-23.14 75.42,-41.02l26.7 -20.98 0 35.24c0,25.7 -4.8,50.68 -14.76,74.4 -9.63,22.93 -23.18,43.51 -40.76,61.1 -17.43,17.42 -37.69,31 -60.35,40.71 -23.5,10.07 -48.33,14.81 -73.87,14.81l-41.23 0 0 81.19 41.23 0c36.56,0 72.12,-6.58 105.73,-21.11 32.36,-13.98 61.15,-33.5 85.89,-58.65 24.8,-25.2 44.17,-54.25 58.2,-86.72 14.52,-33.6 21.1,-69.17 21.1,-105.72l0 -501.89z"/>
   <path class="fil0" d="M5075.56 230.96l-331.22 0c-21.06,0 -41.48,3.83 -60.87,12.14 -18.49,7.93 -35.13,18.84 -49.36,33.07 -14.22,14.23 -25.14,30.88 -33.06,49.36 -8.31,19.39 -12.15,39.8 -12.15,60.87 0,21.06 3.83,41.48 12.15,60.87 8.01,18.7 19.03,35.57 33.22,50.16 14.09,14.49 30.63,25.59 49.2,33.55 19.39,8.31 39.8,12.15 60.87,12.15l230.96 0c20.72,0 39.3,6.8 54.02,21.51 14.4,14.41 21.51,32.39 21.51,52.74 0,20.72 -6.8,39.3 -21.51,54.02 -14.72,14.71 -33.29,21.51 -54.02,21.51l-329.94 0 0 81.19 329.94 0c21.06,0 41.48,-3.83 60.87,-12.14 18.8,-8.06 35.55,-19.26 50,-33.71 14.46,-14.45 25.66,-31.2 33.71,-50 8.31,-19.39 12.15,-39.81 12.15,-60.87 0,-21.06 -3.84,-41.48 -12.15,-60.87 -7.96,-18.57 -19.06,-35.11 -33.55,-49.2 -14.58,-14.19 -31.45,-25.21 -50.16,-33.23 -19.39,-8.31 -39.8,-12.14 -60.87,-12.14l-230.96 0c-20.62,0 -38.63,-7.51 -52.95,-22.37 -14.16,-14.71 -21.3,-32.75 -21.3,-53.15 0,-20.35 7.11,-38.33 21.51,-52.73 14.41,-14.4 32.39,-21.51 52.73,-21.51l331.22 0 0 -81.19zm437.56 461.93l-39.96 0c-25.7,0 -50.68,-4.8 -74.4,-14.76 -22.92,-9.63 -43.51,-23.17 -61.09,-40.75 -17.58,-17.58 -31.13,-38.18 -40.75,-61.1 -9.96,-23.72 -14.76,-48.69 -14.76,-74.4l0 -74.25 230.96 0 0 -81.19 -230.96 0 0 -346.45 -81.19 0 0 501.89c0,36.43 6.84,71.65 21.13,105.15 14,32.79 33.52,62 58.72,87.2 25.2,25.2 54.41,44.72 87.19,58.72 33.5,14.3 68.72,21.13 105.15,21.13l39.96 0 0 -81.19z"/>
   <path class="fil0" d="M682.01 394.29c-11.41,-33.68 -22.49,-66.45 -33.18,-98.01 -10.35,-30.57 -20.43,-60.4 -30.15,-89.17 -10.93,-32.32 -47.57,-63.82 -82.68,-71.36 -30.98,-6.63 -62.56,-13.42 -94.67,-20.3 -32.76,-7.03 -66.26,-14.2 -100.35,-21.52 -40.56,-8.7 -69.74,11.15 -64.12,45.54 5.04,30.69 10.25,62.73 15.56,95.61 5.52,34.14 11.29,69.71 17.14,106.47 7.17,44.76 52.93,87.14 100.61,92.64 39.9,4.71 78.89,9.25 116.8,13.71 37.07,4.35 73.29,8.74 108.67,12.96 40.04,4.8 60.19,-25.69 46.38,-66.57zm48.7 420.17c-12.65,-42.74 -24.96,-83.92 -36.83,-123.87 -11.44,-38.46 -22.56,-75.62 -33.37,-111.69 -12.07,-40.41 -50.13,-75.2 -86.06,-78.92 -31.59,-3.23 -63.85,-6.57 -96.81,-9.94 -33.69,-3.43 -68.1,-7 -103.31,-10.5 -41.86,-4.17 -71.81,27.14 -65.57,71.61 5.59,39.87 11.35,81.11 17.24,123.95 6.13,44.63 12.52,90.97 19.1,139.18 7.91,58.67 55.91,106.71 105.51,105.09 41.56,-1.35 82.01,-2.69 121.35,-3.96 38.56,-1.26 76.02,-2.48 112.71,-3.67 41.48,-1.35 61.44,-45.7 46.07,-97.28zm-455.06 -125.32c-6.06,-52.15 -11.81,-101.8 -17.42,-149.39 -3.19,-26.76 -27.48,-49.84 -54.8,-52.28 -48.06,-4.36 -97.44,-8.72 -148.27,-13.26 -30.32,-2.63 -55.15,17.66 -55.15,46.07 0,50.78 0,103.75 0,159.64 0,33.89 27.93,62.2 61.97,62.78 56.98,0.94 112.19,1.88 165.7,2.81 30.34,0.57 51.54,-24.96 47.97,-56.37zm-92.1 -363.02c37.89,5.16 70.61,35.31 75.07,69.91 4.46,34.6 -22.79,61.5 -62.99,57.46 -40.2,-4.03 -76.38,-38.46 -78.48,-74.19 -2.09,-35.73 28.52,-58.34 66.4,-53.18z"/>
  </g>
 </g>
</svg>
